<svg width="415" height="307" viewBox="0 0 415 307" fill="none" xmlns="http://www.w3.org/2000/svg">
<path d="M195.028 218.678C242.509 239.131 319.492 239.131 366.973 218.678C414.454 198.227 414.454 165.067 366.973 144.615C319.492 124.163 242.508 124.163 195.027 144.615C147.546 165.067 147.546 198.226 195.028 218.678Z" fill="#FAFAFA"/>
<path d="M229.452 167.469L194.671 187.551L192.06 186.014L226.841 165.961L229.452 167.469Z" fill="#EBEBEB"/>
<path d="M214.932 176.375L228.845 168.342L229.181 168.536L215.268 176.568L214.932 176.375Z" fill="#EBEBEB"/>
<path d="M397.305 188.715C399.726 187.317 399.726 185.051 397.305 183.653L303.267 129.36C300.845 127.962 296.92 127.962 294.499 129.359L252.626 153.521L256.735 155.895L278.331 143.465L372.906 198.068L353.106 209.485L357.492 211.7L397.305 188.715Z" fill="#EBEBEB"/>
<path d="M256.051 177.089L323.145 215.826C323.827 216.22 324.934 216.22 325.617 215.826L346.334 203.865C347.016 203.471 347.016 202.832 346.334 202.438L279.24 163.7C278.557 163.306 277.451 163.306 276.768 163.7L256.051 175.661C255.368 176.055 255.368 176.695 256.051 177.089Z" fill="#EBEBEB"/>
<path d="M193.803 176.791C193.099 172.743 192.617 165.139 187.98 158.732C184.621 154.09 179.326 149.93 175.278 151.135C171.508 152.256 172.181 158.233 176.562 161.648C180.943 165.063 186.596 169.856 189.165 178.635L192.964 184.824L193.803 176.791Z" fill="#35D261"/>
<g opacity="0.1">
<path d="M193.803 176.791C193.099 172.743 192.617 165.139 187.98 158.732C184.621 154.09 179.326 149.93 175.278 151.135C171.508 152.256 172.181 158.233 176.562 161.648C180.943 165.063 186.596 169.856 189.165 178.635L192.964 184.824L193.803 176.791Z" fill="black"/>
</g>
<path d="M192.914 179.875C192.773 179.875 192.651 179.77 192.632 179.626C191.108 168.032 185.709 159.122 177.018 153.859C176.883 153.777 176.84 153.602 176.922 153.467C177.004 153.331 177.18 153.29 177.313 153.37C186.158 158.726 191.651 167.78 193.198 179.551C193.218 179.708 193.108 179.852 192.952 179.872C192.94 179.874 192.927 179.875 192.914 179.875Z" fill="white"/>
<path d="M192.559 185.496C192.559 185.496 190.323 188.072 186.104 189.316C181.886 190.56 179.716 188.748 179.716 188.748C179.716 188.748 180.885 184.486 183.184 183.034C183.184 183.034 179.147 184.42 176.108 187.075C176.108 187.075 173.482 187.458 171.912 183.58C171.912 183.58 173.155 180.961 178.213 178.974C178.213 178.974 174.928 178.588 170.496 180.355C170.17 180.537 168.028 175.537 167.272 173.2C166.516 170.863 167.482 170.763 169.284 170.021C171.086 169.279 177.402 168.136 178.705 169.01C180.007 169.885 181.059 173.318 181.059 173.318C181.059 173.318 181.918 171.186 181.419 169.447C181.419 169.447 183.211 168.567 185.403 169.024C187.596 169.482 188.042 170.906 188.536 172.363C189.031 173.82 189.194 175.154 189.062 177.035C189.062 177.035 190.182 174.286 189.428 171.843C189.428 171.843 191.643 172.661 193.054 174.598C194.464 176.535 194.887 182.028 192.559 185.496Z" fill="#35D261"/>
<path d="M192.559 185.782C192.466 185.782 192.375 185.736 192.32 185.653C187.909 178.893 173.91 172.196 169.17 171.899C169.013 171.889 168.893 171.754 168.903 171.597C168.913 171.44 169.036 171.316 169.206 171.33C174.037 171.631 188.305 178.454 192.799 185.34C192.885 185.472 192.848 185.649 192.716 185.736C192.667 185.767 192.613 185.782 192.559 185.782Z" fill="white"/>
<path d="M258.803 52.6148V154.702L256.736 155.896V53.808L258.803 52.6148Z" fill="#37474F"/>
<path d="M256.736 53.808V155.896L252.626 153.521V51.4388L256.736 53.808Z" fill="#263238"/>
<path d="M357.494 211.703L355.422 212.891V110.809L357.488 109.616L357.494 211.703Z" fill="#37474F"/>
<path d="M355.422 110.809V212.891L351.311 210.521V108.434L355.422 110.809Z" fill="#263238"/>
<path d="M356.489 105.442C356.472 105.431 356.455 105.419 356.432 105.408L257.85 48.4989L257.832 48.5101C255.463 47.0828 248.95 48.8296 241.272 53.2655L230.071 59.7334C220.39 65.3277 212.541 73.0461 212.541 76.9792V76.9803L212.539 76.9798V79.3532L212.541 79.3537L212.541 79.3542L311.226 136.329V136.333L357.488 109.616V107.241C357.488 106.407 357.135 105.814 356.489 105.442Z" fill="#35D261"/>
<path opacity="0.4" d="M356.432 105.409C353.983 104.096 347.533 105.871 339.957 110.244L328.763 116.712C319.075 122.301 311.226 130.025 311.226 133.958L214.596 78.1671L212.541 76.9798C212.541 73.0467 220.39 65.3283 230.072 59.734L241.272 53.2661C248.95 48.8307 255.463 47.0839 257.833 48.5107L257.85 48.4995L356.432 105.409Z" fill="white"/>
<path opacity="0.1" d="M311.226 133.957V136.329L212.539 79.3532L212.541 76.9792L311.226 133.957Z" fill="black"/>
<path d="M292.988 179.589C293.234 179.589 293.482 179.526 293.71 179.394L309.302 170.392C311.006 169.408 312.065 167.574 312.065 165.606V147.602C312.065 146.803 311.417 146.155 310.618 146.155C309.819 146.155 309.172 146.803 309.172 147.602V165.606C309.172 166.544 308.667 167.417 307.855 167.886L292.264 176.889C291.572 177.288 291.334 178.173 291.734 178.865C292.002 179.33 292.488 179.589 292.988 179.589Z" fill="#263238"/>
<path d="M324.817 197.558C325.063 197.558 325.312 197.496 325.539 197.364L341.131 188.361C342.836 187.378 343.894 185.544 343.894 183.576V165.571C343.894 164.772 343.247 164.125 342.448 164.125C341.648 164.125 341.001 164.772 341.001 165.571V183.576C341.001 184.513 340.497 185.387 339.685 185.855L324.093 194.858C323.401 195.257 323.164 196.142 323.564 196.834C323.831 197.299 324.317 197.558 324.817 197.558Z" fill="#263238"/>
<path d="M262.252 161.484C262.497 161.484 262.746 161.421 262.974 161.289L278.565 152.287C280.27 151.303 281.328 149.469 281.328 147.501V129.498C281.328 128.698 280.681 128.051 279.881 128.051C279.082 128.051 278.435 128.698 278.435 129.498V147.501C278.435 148.439 277.93 149.312 277.118 149.782L261.527 158.784C260.835 159.183 260.598 160.068 260.998 160.76C261.266 161.224 261.752 161.484 262.252 161.484Z" fill="#263238"/>
<path d="M322.119 195.764V212.426C322.119 212.669 322.279 212.912 322.6 213.098C323.242 213.468 324.283 213.468 324.924 213.098C325.245 212.912 325.405 212.669 325.405 212.426V195.764H322.119Z" fill="#263238"/>
<path d="M335.871 187.931V204.593C335.871 204.836 336.032 205.078 336.352 205.264C336.994 205.634 338.035 205.634 338.676 205.264C338.997 205.078 339.158 204.836 339.158 204.593V187.931H335.871Z" fill="#263238"/>
<path d="M259.607 159.672V176.334C259.607 176.577 259.768 176.82 260.089 177.005C260.73 177.376 261.771 177.376 262.413 177.005C262.734 176.82 262.894 176.577 262.894 176.334V159.672H259.607Z" fill="#263238"/>
<path d="M273.359 151.839V168.501C273.359 168.744 273.52 168.986 273.841 169.172C274.482 169.542 275.523 169.542 276.165 169.172C276.486 168.986 276.646 168.744 276.646 168.501V151.839H273.359Z" fill="#263238"/>
<path d="M347.117 169.656L347.406 169.49C347.867 169.223 348.241 168.576 348.241 168.043V165.448C348.241 164.915 347.867 164.267 347.406 164.001L278.683 124.324C278.221 124.058 277.474 124.058 277.012 124.324L276.724 124.491C276.262 124.757 275.888 125.405 275.888 125.937V128.533C275.888 129.066 276.262 129.713 276.724 129.979L345.446 169.656C345.908 169.923 346.656 169.923 347.117 169.656Z" fill="#455A64"/>
<path d="M344.323 166.746L347.997 164.625C348.148 164.886 348.241 165.182 348.241 165.448V168.043C348.241 168.576 347.867 169.224 347.406 169.49L347.118 169.657C346.656 169.923 345.909 169.923 345.447 169.657L344.323 169.008V166.746Z" fill="#263238"/>
<path d="M345.447 165.132L276.724 125.455C276.262 125.189 275.888 125.405 275.888 125.937V128.533C275.888 129.066 276.262 129.713 276.724 129.979L345.446 169.656C345.907 169.923 346.281 169.707 346.281 169.174V166.579C346.282 166.046 345.908 165.398 345.447 165.132Z" fill="#37474F"/>
<path d="M347.117 177.591L347.406 177.425C347.867 177.158 348.241 176.51 348.241 175.978V173.383C348.241 172.85 347.867 172.202 347.406 171.936L278.683 132.259C278.221 131.993 277.474 131.993 277.012 132.259L276.724 132.426C276.262 132.692 275.888 133.34 275.888 133.872V136.468C275.888 137.001 276.262 137.648 276.724 137.914L345.446 177.591C345.908 177.858 346.656 177.858 347.117 177.591Z" fill="#455A64"/>
<path d="M344.323 174.68L347.997 172.559C348.148 172.821 348.241 173.116 348.241 173.383V175.978C348.241 176.511 347.867 177.158 347.406 177.425L347.118 177.591C346.656 177.858 345.909 177.858 345.447 177.591L344.323 176.943V174.68Z" fill="#263238"/>
<path d="M345.447 173.067L276.724 133.39C276.262 133.124 275.888 133.34 275.888 133.872V136.468C275.888 137.001 276.262 137.648 276.724 137.914L345.446 177.591C345.907 177.858 346.281 177.642 346.281 177.109V174.514C346.282 173.981 345.908 173.333 345.447 173.067Z" fill="#37474F"/>
<path d="M347.117 185.526L347.406 185.359C347.867 185.093 348.241 184.445 348.241 183.912V181.317C348.241 180.784 347.867 180.136 347.406 179.87L278.683 140.193C278.221 139.927 277.474 139.927 277.012 140.193L276.724 140.36C276.262 140.627 275.888 141.275 275.888 141.807V144.402C275.888 144.935 276.262 145.582 276.724 145.849L345.446 185.526C345.908 185.792 346.656 185.792 347.117 185.526Z" fill="#455A64"/>
<path d="M344.323 182.615L347.997 180.494C348.148 180.755 348.241 181.051 348.241 181.317V183.912C348.241 184.445 347.867 185.093 347.406 185.359L347.118 185.526C346.656 185.792 345.909 185.792 345.447 185.526L344.323 184.877V182.615Z" fill="#263238"/>
<path d="M345.447 181.001L276.724 141.324C276.262 141.058 275.888 141.274 275.888 141.807V144.402C275.888 144.935 276.262 145.582 276.724 145.849L345.446 185.526C345.907 185.792 346.281 185.576 346.281 185.043V182.448C346.282 181.916 345.908 181.268 345.447 181.001Z" fill="#37474F"/>
<path d="M344.322 190.33V190.663C344.322 191.195 343.948 191.843 343.487 192.109L341.239 193.407C340.778 193.673 340.03 193.673 339.569 193.407L270.846 153.73C270.385 153.464 270.01 152.816 270.01 152.283V151.951C270.01 151.418 270.385 150.77 270.846 150.504L273.093 149.206C273.555 148.94 274.303 148.94 274.764 149.206L343.487 188.883C343.949 189.149 344.322 189.797 344.322 190.33Z" fill="#37474F"/>
<path d="M340.404 189.365V193.607C340.707 193.607 341.009 193.54 341.239 193.407L343.487 192.109C343.948 191.843 344.323 191.195 344.323 190.663V190.33C344.323 189.797 343.948 189.149 343.487 188.883L342.363 188.235L340.404 189.365Z" fill="#263238"/>
<path d="M339.569 191.145L270.847 151.468C270.385 151.202 270.385 150.77 270.847 150.504L273.094 149.206C273.555 148.94 274.303 148.94 274.765 149.206L343.487 188.883C343.949 189.149 343.949 189.581 343.487 189.847L341.24 191.145C340.778 191.412 340.031 191.412 339.569 191.145Z" fill="#455A64"/>
<path d="M337.466 194.288V194.621C337.466 195.154 337.092 195.801 336.63 196.068L334.383 197.365C333.921 197.632 333.174 197.632 332.712 197.365L263.99 157.689C263.528 157.422 263.154 156.775 263.154 156.242V155.909C263.154 155.376 263.529 154.728 263.99 154.462L266.237 153.165C266.698 152.898 267.446 152.898 267.908 153.165L336.63 192.842C337.092 193.108 337.466 193.755 337.466 194.288Z" fill="#37474F"/>
<path d="M333.548 193.324V197.566C333.85 197.566 334.152 197.499 334.383 197.366L336.63 196.068C337.092 195.802 337.466 195.154 337.466 194.622V194.289C337.466 193.756 337.092 193.108 336.63 192.842L335.507 192.194L333.548 193.324Z" fill="#263238"/>
<path d="M332.712 195.104L263.989 155.427C263.528 155.161 263.528 154.729 263.989 154.462L266.237 153.165C266.698 152.898 267.446 152.898 267.908 153.165L336.63 192.842C337.091 193.108 337.091 193.54 336.63 193.806L334.383 195.104C333.922 195.37 333.174 195.37 332.712 195.104Z" fill="#455A64"/>
<path d="M330.609 198.247V198.58C330.609 199.113 330.235 199.76 329.774 200.027L327.526 201.325C327.065 201.591 326.317 201.591 325.856 201.325L257.133 161.648C256.671 161.381 256.297 160.734 256.297 160.201V159.868C256.297 159.335 256.671 158.688 257.132 158.421L259.38 157.124C259.841 156.857 260.589 156.857 261.051 157.124L329.773 196.801C330.235 197.067 330.609 197.715 330.609 198.247Z" fill="#37474F"/>
<path d="M326.691 197.282V201.524C326.993 201.524 327.295 201.457 327.526 201.324L329.773 200.027C330.235 199.76 330.609 199.112 330.609 198.58V198.247C330.609 197.714 330.235 197.067 329.774 196.8L328.65 196.152L326.691 197.282Z" fill="#263238"/>
<path d="M325.856 199.062L257.133 159.386C256.671 159.119 256.671 158.687 257.133 158.421L259.38 157.123C259.842 156.857 260.59 156.857 261.051 157.123L329.774 196.8C330.235 197.066 330.235 197.498 329.774 197.764L327.526 199.062C327.065 199.329 326.317 199.329 325.856 199.062Z" fill="#455A64"/>
<path d="M342.447 164.95C342.744 165.122 342.985 165.539 342.985 165.882C342.985 166.225 342.744 166.364 342.447 166.192C342.15 166.021 341.909 165.604 341.909 165.261C341.909 164.918 342.15 164.779 342.447 164.95Z" fill="#263238"/>
<path d="M342.447 172.869C342.744 173.04 342.985 173.457 342.985 173.8C342.985 174.143 342.744 174.282 342.447 174.11C342.15 173.939 341.909 173.522 341.909 173.179C341.909 172.836 342.15 172.697 342.447 172.869Z" fill="#263238"/>
<path d="M342.447 180.786C342.744 180.958 342.985 181.375 342.985 181.718C342.985 182.061 342.744 182.2 342.447 182.028C342.15 181.857 341.909 181.44 341.909 181.097C341.909 180.754 342.15 180.614 342.447 180.786Z" fill="#263238"/>
<path d="M279.881 128.896C280.178 129.067 280.419 129.484 280.419 129.827C280.419 130.17 280.178 130.309 279.881 130.138C279.584 129.966 279.344 129.549 279.344 129.206C279.343 128.864 279.584 128.724 279.881 128.896Z" fill="#263238"/>
<path d="M279.881 136.813C280.178 136.985 280.419 137.402 280.419 137.745C280.419 138.088 280.178 138.226 279.881 138.055C279.584 137.883 279.344 137.466 279.344 137.123C279.344 136.78 279.584 136.642 279.881 136.813Z" fill="#263238"/>
<path d="M279.881 144.731C280.178 144.903 280.419 145.32 280.419 145.663C280.419 146.006 280.178 146.145 279.881 145.973C279.584 145.802 279.344 145.385 279.344 145.042C279.343 144.699 279.584 144.56 279.881 144.731Z" fill="#263238"/>
<path d="M337.986 187.318C338.247 187.469 338.247 187.713 337.987 187.864C337.726 188.014 337.304 188.014 337.042 187.864C336.78 187.713 336.78 187.469 337.041 187.318C337.303 187.168 337.725 187.167 337.986 187.318Z" fill="#263238"/>
<path d="M331.111 191.31C331.372 191.46 331.372 191.705 331.111 191.855C330.851 192.006 330.428 192.006 330.166 191.855C329.905 191.705 329.905 191.46 330.166 191.31C330.427 191.159 330.85 191.159 331.111 191.31Z" fill="#263238"/>
<path d="M324.234 195.301C324.495 195.451 324.495 195.696 324.235 195.846C323.974 195.997 323.551 195.997 323.29 195.846C323.028 195.696 323.028 195.451 323.289 195.301C323.55 195.15 323.973 195.15 324.234 195.301Z" fill="#263238"/>
<path d="M275.475 151.248C275.736 151.399 275.736 151.643 275.475 151.794C275.215 151.944 274.792 151.944 274.53 151.794C274.269 151.643 274.269 151.399 274.53 151.248C274.791 151.097 275.214 151.097 275.475 151.248Z" fill="#263238"/>
<path d="M268.599 155.239C268.86 155.39 268.86 155.634 268.6 155.785C268.34 155.935 267.917 155.935 267.655 155.785C267.394 155.634 267.394 155.39 267.654 155.239C267.915 155.088 268.338 155.088 268.599 155.239Z" fill="#263238"/>
<path d="M261.723 159.23C261.984 159.381 261.984 159.625 261.723 159.776C261.463 159.926 261.04 159.926 260.778 159.776C260.517 159.625 260.517 159.381 260.778 159.23C261.039 159.079 261.462 159.079 261.723 159.23Z" fill="#263238"/>
<path d="M310.618 147.001C310.915 147.172 311.156 147.589 311.156 147.932C311.156 148.275 310.915 148.414 310.618 148.243C310.321 148.071 310.081 147.654 310.081 147.311C310.08 146.969 310.321 146.829 310.618 147.001Z" fill="#263238"/>
<path d="M310.618 154.918C310.915 155.09 311.156 155.507 311.156 155.85C311.156 156.193 310.915 156.332 310.618 156.16C310.321 155.989 310.081 155.572 310.081 155.229C310.081 154.886 310.321 154.747 310.618 154.918Z" fill="#263238"/>
<path d="M310.618 162.836C310.915 163.008 311.156 163.425 311.156 163.768C311.156 164.111 310.915 164.25 310.618 164.078C310.321 163.907 310.081 163.49 310.081 163.147C310.08 162.804 310.321 162.665 310.618 162.836Z" fill="#263238"/>
<path d="M306.212 169.353C306.473 169.504 306.473 169.748 306.212 169.899C305.952 170.049 305.529 170.049 305.267 169.899C305.006 169.748 305.006 169.504 305.267 169.353C305.528 169.202 305.951 169.202 306.212 169.353Z" fill="#263238"/>
<path d="M299.336 173.344C299.597 173.495 299.597 173.739 299.337 173.89C299.076 174.04 298.653 174.04 298.392 173.89C298.13 173.739 298.13 173.495 298.391 173.344C298.652 173.193 299.075 173.193 299.336 173.344Z" fill="#263238"/>
<path d="M292.46 177.335C292.721 177.486 292.721 177.73 292.46 177.881C292.2 178.031 291.777 178.031 291.515 177.881C291.254 177.73 291.254 177.486 291.515 177.335C291.776 177.184 292.199 177.184 292.46 177.335Z" fill="#263238"/>
<path d="M194.569 85.0402V187.059L192.503 185.866V83.824L194.569 85.0402Z" fill="#263238"/>
<path d="M197.875 83.1106V185.15L194.569 187.059V85.0402L197.875 83.1106Z" fill="#37474F"/>
<path d="M197.875 83.1106L194.569 85.0402L192.503 83.824L195.808 81.9174L197.875 83.1106Z" fill="#455A64"/>
<path d="M186.484 95.3335L204.882 84.7111C205.564 84.3171 206.118 84.6365 206.118 85.4245V112.024C206.118 112.812 205.565 113.771 204.882 114.165L186.484 124.787C185.802 125.181 185.248 124.861 185.248 124.073L185.248 97.4743C185.248 96.6858 185.802 95.7275 186.484 95.3335Z" fill="#0285BB"/>
<path d="M203.348 97.2567L202.511 97.7396C202.447 97.7766 202.395 97.8672 202.395 97.9411V99.8815L202.395 100.746L202.033 100.949V94.7364C202.033 93.6381 201.261 93.1932 200.311 93.7421L191.055 99.0855C190.104 99.6344 189.333 100.97 189.333 102.068V108.281L188.971 108.496V107.631L188.971 105.691C188.971 105.616 188.919 105.586 188.855 105.624L188.018 106.107C187.954 106.144 187.902 106.234 187.902 106.308V108.087C187.902 108.362 188.095 108.473 188.333 108.336L188.558 108.206V108.734C188.558 108.992 188.74 109.097 188.963 108.968L189.333 108.754V113.138L189.284 113.167C189.027 113.315 188.818 113.676 188.818 113.973V114.128C188.818 114.841 189.319 115.13 189.936 114.774L190.167 114.64V115.773C190.167 115.966 190.302 116.045 190.47 115.948L191.918 115.112C192.085 115.015 192.22 114.781 192.22 114.588V113.455L199.147 109.456V110.589C199.147 110.782 199.282 110.86 199.449 110.764L200.897 109.928C201.065 109.831 201.2 109.597 201.2 109.404V108.271L201.431 108.137C202.048 107.781 202.549 106.914 202.549 106.201V106.046C202.549 105.749 202.34 105.628 202.083 105.777L202.034 105.805V101.421L202.404 101.207C202.627 101.078 202.809 100.763 202.809 100.505V99.9769L203.034 99.8472C203.272 99.7094 203.465 99.3749 203.465 99.1V97.3215C203.464 97.2492 203.412 97.2191 203.348 97.2567ZM201.54 102.991C201.54 103.45 201.217 104.008 200.82 104.238C200.422 104.467 200.1 104.281 200.1 103.822C200.1 103.363 200.422 102.805 200.82 102.575C201.217 102.346 201.54 102.532 201.54 102.991ZM200.552 94.5868C200.8 94.4437 201.001 94.5595 201.001 94.8457C201.001 95.132 200.8 95.4798 200.552 95.6229C200.305 95.766 200.104 95.6503 200.104 95.364C200.104 95.0778 200.305 94.73 200.552 94.5868ZM201.001 97.7391V100.78C201.001 100.914 200.907 101.077 200.791 101.144L195.901 103.967V99.1059L199.634 96.9506C200.389 96.5143 201.001 96.8675 201.001 97.7391ZM199.545 105.869L191.821 110.328V109.968L199.545 105.509V105.869ZM199.545 103.776V104.195L191.821 108.654V108.235L199.545 103.776ZM199.545 105.031L191.821 109.49V109.132L199.545 104.673V105.031ZM192.22 99.4773C192.22 99.4114 192.266 99.331 192.323 99.2983L199.042 95.4187C199.1 95.3855 199.146 95.4123 199.146 95.4782V96.3551C199.146 96.421 199.099 96.5014 199.042 96.5347L192.323 100.414C192.266 100.447 192.22 100.421 192.22 100.354V99.4773ZM190.813 100.209C191.061 100.066 191.262 100.183 191.262 100.468C191.262 100.755 191.061 101.102 190.813 101.246C190.566 101.389 190.365 101.272 190.365 100.987C190.365 100.701 190.566 100.353 190.813 100.209ZM190.365 103.88C190.365 103.008 190.977 101.948 191.732 101.513L195.465 99.3572V104.219L190.575 107.042C190.459 107.109 190.365 107.055 190.365 106.921V103.88ZM190.546 108.507C190.944 108.277 191.266 108.463 191.266 108.922C191.266 109.382 190.944 109.939 190.546 110.169C190.149 110.398 189.826 110.212 189.826 109.754C189.826 109.294 190.149 108.736 190.546 108.507ZM192.464 110.853C192.209 111 191.992 110.954 191.888 110.767L199.478 106.385C199.373 106.692 199.156 106.989 198.902 107.136L192.464 110.853Z" fill="white"/>
<path d="M304.477 177.649C305.287 177.445 309.603 174.988 310.041 174.689C310.479 174.391 311.349 173.773 311.349 172.707C311.349 171.762 311.25 162.874 310.479 158.578C310.1 156.465 308.729 153.697 306.044 152.033C303.359 150.368 300.661 149.163 298.385 150.107C296.108 151.051 294.034 152.791 293.14 154.889C292.245 156.987 291.632 161.189 291.568 162.814C291.505 164.439 291.568 170.013 291.568 170.507C291.568 171.002 291.657 171.646 294.322 173.297C296.987 174.948 300.671 176.933 301.81 177.445C302.676 177.835 303.744 177.834 304.477 177.649Z" fill="#F3CC50"/>
<path d="M305.144 153.188C305.39 153.33 306.101 152.979 306.208 152.803C306.314 152.628 306.342 151.103 305.811 150.26C305.28 149.417 301.962 147.866 301.142 147.98C300.323 148.095 299.722 148.736 299.62 148.953C299.518 149.17 299.406 150.589 299.62 150.878C299.833 151.168 300.59 150.723 300.657 150.598C300.723 150.473 300.407 149.439 300.942 149.222C301.428 149.026 303.736 150.007 304.679 150.798C305.087 151.14 305.067 151.995 305.049 152.418C305.032 152.841 305.019 153.116 305.144 153.188Z" fill="#F3CC50"/>
<path opacity="0.1" d="M305.144 153.188C305.39 153.33 306.101 152.979 306.208 152.803C306.314 152.628 306.342 151.103 305.811 150.26C305.28 149.417 301.962 147.866 301.142 147.98C300.323 148.095 299.722 148.736 299.62 148.953C299.518 149.17 299.406 150.589 299.62 150.878C299.833 151.168 300.59 150.723 300.657 150.598C300.723 150.473 300.407 149.439 300.942 149.222C301.428 149.026 303.736 150.007 304.679 150.798C305.087 151.14 305.067 151.995 305.049 152.418C305.032 152.841 305.019 153.116 305.144 153.188Z" fill="black"/>
<path opacity="0.1" d="M305.811 163.199C305.334 158.579 304.477 155.883 299.959 153.872C295.441 151.86 293.69 153.573 293.049 155.114C292.204 157.274 291.629 161.245 291.568 162.814C291.505 164.439 291.568 170.013 291.568 170.508C291.568 171.003 291.657 171.647 294.322 173.298C296.987 174.948 300.671 176.934 301.81 177.446C302.676 177.836 303.744 177.835 304.477 177.65C304.589 177.622 304.771 177.549 304.999 177.445C306.406 175.646 306.246 167.416 305.811 163.199Z" fill="black"/>
<path opacity="0.1" d="M295.279 152.067C296.457 151.377 298.394 150.921 301.235 152.187C306.315 154.451 307.605 157.284 308.117 162.248C308.211 163.158 308.347 164.243 308.406 165.411L308.825 165.158C308.766 163.898 308.645 162.82 308.538 161.848C307.988 156.836 306.475 154.066 301.621 151.905C298.935 150.708 297.167 150.865 295.999 151.454C295.777 151.625 295.568 151.793 295.279 152.067Z" fill="black"/>
<path d="M295.102 152.196C296.28 151.505 298.217 151.05 301.058 152.316C306.138 154.58 307.428 157.413 307.94 162.377C308.034 163.287 308.17 164.372 308.229 165.539L308.648 165.286C308.589 164.027 308.468 162.949 308.361 161.976C307.811 156.965 306.298 154.195 301.444 152.033C298.758 150.837 296.943 151.036 295.775 151.624C295.553 151.795 295.391 151.922 295.102 152.196Z" fill="white"/>
<path d="M296.746 156.586L298.281 155.711C298.438 155.621 298.639 155.675 298.73 155.832L300.306 158.571C300.396 158.728 300.343 158.929 300.186 159.021L298.669 159.905C298.513 159.996 298.312 159.943 298.221 159.787L296.625 157.033C296.534 156.876 296.588 156.676 296.746 156.586Z" fill="#37474F"/>
<path d="M298.393 159.592L296.88 156.983C296.835 156.904 296.862 156.804 296.94 156.759L298.332 155.965C298.411 155.92 298.511 155.947 298.557 156.026L300.052 158.624C300.097 158.703 300.07 158.804 299.992 158.849L298.616 159.651C298.538 159.696 298.438 159.67 298.393 159.592Z" fill="#455A64"/>
<path d="M298.069 158.344C297.989 158.297 297.923 158.194 297.923 158.114V156.866C297.923 156.785 297.989 156.757 298.069 156.804C298.149 156.851 298.215 156.954 298.215 157.034V158.282C298.214 158.363 298.149 158.391 298.069 158.344Z" fill="#37474F"/>
<path d="M298.882 158.813C298.801 158.766 298.736 158.663 298.736 158.583V157.335C298.736 157.254 298.801 157.226 298.882 157.273C298.962 157.32 299.027 157.423 299.027 157.503V158.752C299.027 158.832 298.962 158.86 298.882 158.813Z" fill="#37474F"/>
<path d="M308.131 164.534C308.131 164.534 307.865 165.564 307.881 166.004C307.885 166.105 308.017 166.158 308.057 166.159C308.292 166.165 308.863 165.808 308.912 165.712C308.96 165.616 308.683 164.459 308.683 164.459L308.131 164.534Z" fill="#263238"/>
<path d="M308.379 164.676C308.673 164.676 308.912 164.437 308.912 164.142C308.912 163.848 308.673 163.609 308.379 163.609C308.084 163.609 307.846 163.848 307.846 164.142C307.846 164.437 308.084 164.676 308.379 164.676Z" fill="#263238"/>
<path opacity="0.1" d="M301.143 149.198C300.558 149.142 300.008 149.193 299.867 149.782C299.726 150.37 299.778 150.899 299.867 150.973C300.173 150.962 300.608 150.691 300.658 150.598C300.724 150.473 300.408 149.439 300.943 149.222C300.992 149.203 301.06 149.196 301.143 149.198Z" fill="black"/>
<path d="M307.113 168.306L310.236 166.487C310.411 166.384 310.631 166.397 310.79 166.523C311.134 166.793 311.688 167.411 311.989 168.713C312.447 170.689 312.322 173.306 311.816 173.604L308.438 175.574C307.933 175.873 307.214 175.248 307.035 175.032C306.668 174.589 306.76 169.89 307.113 168.306Z" fill="#F3CC50"/>
<path opacity="0.1" d="M307.113 168.306C307.113 168.306 307.752 168.831 308.208 170.808C308.666 172.784 308.944 175.276 308.439 175.574C307.933 175.872 307.215 175.248 307.036 175.032C306.668 174.589 306.76 169.89 307.113 168.306Z" fill="black"/>
<path opacity="0.1" d="M310.626 166.821C310.997 167.006 311.624 167.508 311.908 168.847C311.997 169.269 311.848 169.681 311.591 169.863C311.333 170.045 310.164 170.603 309.431 171.04C308.799 171.417 308.469 170.915 308.331 170.603C308.1 170.045 307.894 169.611 307.72 169.279C307.396 168.54 307.113 168.306 307.113 168.306L310.124 166.844C310.277 166.753 310.467 166.742 310.626 166.821Z" fill="black"/>
<path d="M310.279 166.461C310.433 166.371 310.623 166.359 310.782 166.439C311.153 166.623 311.78 167.125 312.063 168.464C312.153 168.887 312.004 169.299 311.747 169.481C311.489 169.663 310.32 170.22 309.586 170.657C308.954 171.034 308.625 170.533 308.486 170.22H308.486C307.721 168.618 307.113 168.306 307.113 168.306L310.279 166.461Z" fill="#F3CC50"/>
<path opacity="0.4" d="M310.279 166.461C310.433 166.371 310.623 166.359 310.782 166.439C311.153 166.623 311.78 167.125 312.063 168.464C312.153 168.887 312.004 169.299 311.747 169.481C311.489 169.663 310.32 170.22 309.586 170.657C308.954 171.034 308.625 170.533 308.486 170.22H308.486C307.721 168.618 307.113 168.306 307.113 168.306L310.279 166.461Z" fill="white"/>
<path d="M293.558 163.954L302.833 169.31V169.856L293.558 164.501V163.954Z" fill="white"/>
<path opacity="0.1" d="M293.558 164.82L302.833 170.176V169.856L293.558 164.501V164.82Z" fill="black"/>
<path d="M303.136 170.087C303.136 170.087 303.402 171.117 303.386 171.557C303.382 171.658 303.25 171.711 303.21 171.712C302.975 171.718 302.403 171.361 302.355 171.265C302.307 171.169 302.584 170.012 302.584 170.012L303.136 170.087Z" fill="#263238"/>
<path d="M302.888 170.228C303.183 170.228 303.421 169.989 303.421 169.695C303.421 169.4 303.183 169.162 302.888 169.162C302.594 169.162 302.355 169.4 302.355 169.695C302.355 169.989 302.594 170.228 302.888 170.228Z" fill="#263238"/>
<path d="M312.787 218.1L309.032 217.712L309.809 211.976L313.871 212.357L312.787 218.1Z" fill="#FFA8A7"/>
<path d="M309.347 215.386L309.416 214.879C309.05 215.019 306.972 218.795 305.705 220.362C304.393 221.986 302.294 223.348 301.828 224.532C301.343 225.763 304.507 226.544 305.621 226.399C306.915 226.231 309.182 225.43 309.779 224.619C310.377 223.807 310.696 222.583 311.178 221.99C311.66 221.397 313.522 220.149 313.814 219.125C313.927 218.728 313.832 217.121 313.676 216.39C313.533 215.719 313.594 214.986 313.365 215.038L313.262 215.583C312.976 215.872 312.077 215.995 311.226 215.988C310.677 215.983 309.323 215.804 309.347 215.386Z" fill="#263238"/>
<path d="M300.084 210.673L296.117 210.274L298.161 204.099L302.37 203.984L300.084 210.673Z" fill="#FFA8A7"/>
<path d="M296.555 208.951C296.369 208.958 296.076 209.156 295.581 209.589C295.031 210.071 292.176 211.76 291.375 212.161C290.033 212.833 287.422 213.867 286.24 214.399C285.502 214.732 285.537 215.624 286.3 216.131C287.063 216.638 288.951 217.714 291.163 217.219C292.368 216.95 296.176 214.884 297.169 214.944C298.162 215.004 300.019 214.99 300.752 214.485C301.485 213.98 301.146 212.191 300.939 211.264C300.712 210.252 300.907 209.176 300.572 209.245L300.336 209.934C299.905 210.587 296.324 210.078 296.377 209.488L296.555 208.951Z" fill="#263238"/>
<path d="M332.982 177.023C333.768 182.564 332.709 183.628 327.442 188.936C324.609 191.79 318.623 195.764 318.623 195.764C318.623 195.764 319.174 198.911 318.014 202.707C316.733 206.901 313.554 214.28 313.554 214.28C313.554 214.28 311.451 215.191 309.347 214.123C309.347 214.123 310.31 207.962 310.752 203.558C311.451 196.605 312.055 194.253 312.36 192.967C312.629 191.833 318.684 185.515 319.921 183.616L307.688 189.763C307.688 189.763 307.627 193.543 306.888 195.574C304.975 200.826 300.928 208.814 300.928 208.814C300.928 208.814 297.849 209.125 296.555 208.118C296.555 208.118 300.477 188.877 300.968 187.248C301.826 184.408 312.193 176.948 314.318 175.151C315.53 174.126 316.882 173.031 316.882 173.031L332.982 177.023Z" fill="#37474F"/>
<path d="M332.982 177.023L329.739 176.219L329.837 177.222C329.837 177.222 330.087 183.054 325.485 187.591C320.884 192.128 316.962 194.78 316.728 195.764C316.494 196.749 316.233 205.219 312.09 214.615C312.96 214.534 313.554 214.28 313.554 214.28C313.554 214.28 316.733 206.9 318.014 202.707C319.173 198.911 318.623 195.764 318.623 195.764C318.623 195.764 324.609 191.79 327.442 188.936C332.709 183.628 333.768 182.564 332.982 177.023Z" fill="#263238"/>
<path d="M319.921 183.616C319.921 183.616 318.093 182.265 317.318 179.903C317.318 179.903 317.415 181.494 317.723 182.727C318.032 183.959 307.688 189.763 307.688 189.763L319.921 183.616Z" fill="#263238"/>
<path d="M317.563 162.602C317.563 162.602 310.253 155.399 308.918 154.203C307.536 152.965 304.724 152.174 302.833 152.495C300.944 152.816 301.046 154.263 302.682 154.954C305.364 156.087 306.186 157.132 306.119 157.251C306.052 157.37 304.181 156.478 303.387 156.924C302.592 157.37 303.009 157.936 303.387 158.043C303.764 158.15 305.399 158.919 306.27 159.185C307.141 159.451 308.393 159.475 309.607 160.309C310.82 161.143 315.462 168.307 317.424 169.449C319.386 170.592 319.675 162.763 319.675 162.763L317.563 162.602Z" fill="#FFA8A7"/>
<path d="M322.321 151.439C320.509 151.2 319.166 151.586 318.107 153.221C317.049 154.856 316.426 161.483 316.426 161.483C316.426 161.483 316.805 163.102 318.023 163.609C319.241 164.116 322.321 151.439 322.321 151.439Z" fill="#E0E0E0"/>
<path d="M331.992 154.523C331.992 154.523 333.251 155.552 333.251 158.805V165.831L333.071 177.644C330.557 180.38 319.246 179.342 316.457 173.377C316.457 173.377 316.862 160.757 317.239 157.989C317.751 154.232 318.695 151.52 322.321 151.439L327.853 152.726L331.992 154.523Z" fill="#F0F0F0"/>
<path d="M335.279 188.657C334.854 189.191 334.333 189.659 333.718 189.957C332.935 190.336 332.04 190.419 331.17 190.39C330.789 190.378 330.399 190.343 330.052 190.184C329.783 190.061 329.423 189.788 329.371 189.472C329.317 189.147 329.65 188.873 329.874 188.691C330.261 188.376 330.59 187.998 330.917 187.622C331.079 187.436 331.241 187.25 331.384 187.051C331.558 186.808 331.705 186.545 331.868 186.299C331.958 186.163 332.19 185.781 331.966 185.663C331.88 185.617 331.775 185.634 331.681 185.656C331.39 185.723 331.11 185.827 330.818 185.888C330.526 185.948 330.214 185.961 329.938 185.848C329.81 185.796 329.686 185.708 329.641 185.577C329.596 185.448 329.638 185.302 329.717 185.191C329.796 185.08 329.907 184.997 330.017 184.915C330.35 184.667 330.684 184.42 331.017 184.173C331.68 183.681 332.463 183.386 332.948 182.678C333.296 182.169 333.376 181.533 333.492 180.94C333.878 178.957 334.289 171.148 334.289 171.148L331.736 162.065C331.736 162.065 329.38 157.194 331.993 154.522C333.203 155.083 334.616 154.953 336.164 160.308C337.274 164.147 339.213 169.328 339.213 171.019C339.213 171.621 339.166 172.311 339.004 173.175C338.293 176.951 337.573 180.189 336.939 183.967C336.885 184.289 336.892 184.616 336.836 184.933C336.434 187.205 335.704 188.123 335.279 188.657Z" fill="#FFA8A7"/>
<path d="M331.992 154.523C331.992 154.523 333.488 154.731 334.401 155.771C334.931 156.373 336.08 158.343 336.708 160.664C337.335 162.986 338.294 165.956 338.294 165.956C338.294 165.956 336.325 168.19 332.916 167.895L330.995 161.648C330.995 161.648 329.202 156.145 331.992 154.523Z" fill="#E0E0E0"/>
<path d="M326.774 142.671C327.421 139.935 325.726 137.193 322.99 136.547C320.254 135.901 317.512 137.595 316.865 140.332C316.219 143.068 317.914 145.81 320.65 146.456C323.386 147.102 326.128 145.408 326.774 142.671Z" fill="#263238"/>
<path d="M330.148 144.526C330.148 144.526 329.368 148.195 329.055 148.798C328.741 149.401 328.095 149.572 328.095 149.572L328.149 146.991L330.148 144.526Z" fill="#263238"/>
<path d="M329.168 139.272C329.168 139.272 330.009 139.127 330.665 139.798C331.307 140.455 330.948 142.512 330.148 144.527L328.677 144.696L329.168 139.272Z" fill="#263238"/>
<path d="M328.237 144.697C328.531 144.873 328.952 144.307 329.316 143.926C329.679 143.545 330.867 143.025 331.46 144.273C332.063 145.545 330.937 147.225 330.002 147.518C328.391 148.024 328.149 146.991 328.149 146.991L328.026 152.802C326.638 154.352 321.89 153.983 322.785 152.648L322.79 150.88C322.79 150.88 321.33 151.101 320.618 150.991C319.433 150.808 318.688 149.873 318.329 148.591C317.751 146.531 317.532 144.868 318.022 140.817C318.559 136.378 323.723 136.331 326.512 138.086C329.3 139.842 328.237 144.697 328.237 144.697Z" fill="#FFA8A7"/>
<path d="M328.237 145.193C328.385 145.195 328.949 144.26 329.316 143.926C329.825 143.463 329.169 139.271 329.169 139.271C329.169 139.271 329.658 138.229 328.678 137.151C327.981 136.384 326.816 136.299 324.828 135.986C323.784 135.822 322.203 135.53 321.161 135.337C319.917 135.105 318.887 134.861 318.009 135.624C317.325 136.218 317.031 137.268 317.399 138.096C317.485 138.29 317.61 138.465 317.752 138.623C318.004 138.903 318.288 139.124 318.647 139.239C318.647 139.239 319.189 139.721 321.077 139.951C322.964 140.181 325.903 139.907 326.305 139.851C326.852 139.776 326.969 140.307 327.264 141.756C327.523 143.028 327.738 145.183 328.237 145.193Z" fill="#263238"/>
<path d="M329.166 139.597L330.949 138.64C330.696 138.129 330.091 137.929 329.599 138.194C329.107 138.458 328.913 139.086 329.166 139.597Z" fill="#263238"/>
<path d="M322.789 150.88C322.789 150.88 325.434 150.347 326.358 149.855C326.977 149.526 327.487 148.956 327.636 148.591C327.636 148.591 327.463 149.376 326.91 150.083C326.234 150.947 322.789 151.583 322.789 151.583V150.88Z" fill="#F28F8F"/>
<path d="M323.425 144.035C323.425 144.339 323.662 144.585 323.955 144.585C324.248 144.584 324.485 144.337 324.485 144.033C324.485 143.729 324.248 143.483 323.955 143.483C323.662 143.484 323.425 143.732 323.425 144.035Z" fill="#263238"/>
<path d="M324.276 141.842L325.41 142.467C325.577 142.141 325.459 141.737 325.146 141.565C324.832 141.392 324.443 141.516 324.276 141.842Z" fill="#263238"/>
<path d="M323.029 147.696L321.819 148.15C321.939 148.497 322.307 148.677 322.641 148.551C322.975 148.426 323.148 148.043 323.029 147.696Z" fill="#F28F8F"/>
<path d="M318.563 142.308L319.597 141.511C319.386 141.216 318.984 141.154 318.698 141.374C318.413 141.593 318.353 142.012 318.563 142.308Z" fill="#263238"/>
<path d="M319.017 143.885C319.017 144.189 319.255 144.435 319.547 144.434C319.84 144.433 320.078 144.186 320.078 143.882C320.078 143.578 319.84 143.332 319.547 143.332C319.255 143.333 319.017 143.58 319.017 143.885Z" fill="#263238"/>
<path d="M321.636 143.459L321.575 146.673L319.675 146.255L321.636 143.459Z" fill="#F28F8F"/>
<path d="M357.117 73.1881L361.035 75.45C361.016 75.2753 361.002 75.1011 361.002 74.9312V73.7965C361.002 71.7768 362.421 70.9578 364.17 71.9677C364.878 72.3766 365.53 73.0246 366.057 73.7831C366.344 71.2435 368.336 70.2975 370.756 71.6943C373.373 73.2053 375.495 76.8796 375.495 79.9015V81.5996C375.495 82.3821 375.35 83.0414 375.094 83.5667L378.348 85.4454C379.318 86.0055 380.105 87.368 380.105 88.4882C380.105 89.6085 379.318 90.063 378.348 89.5024L357.117 77.2446C356.147 76.6845 355.36 75.3219 355.36 74.2017C355.36 73.0825 356.147 72.628 357.117 73.1881Z" fill="#EBEBEB"/>
<path d="M243.117 237.946C242.979 237.866 242.787 237.879 242.576 238L240.364 239.276C239.947 239.516 239.608 240.092 239.61 240.571L239.617 248.705C239.619 248.943 239.703 249.11 239.839 249.189L240.498 249.573L243.776 238.329L243.117 237.946Z" fill="#00D33C"/>
<path d="M243.992 238.806C243.991 238.328 243.649 238.145 243.234 238.384L241.022 239.66C240.606 239.9 240.267 240.478 240.268 240.955L240.276 249.09C240.277 249.568 240.619 249.761 241.035 249.521L243.246 248.245C243.662 248.005 244.001 247.418 244 246.939L243.992 238.806Z" fill="#10EA4E"/>
<path d="M241.39 239.271C241.253 239.271 241.142 239.16 241.142 239.024V233.917L234.321 229.979C232.365 228.85 229.183 228.85 227.227 229.979L222.56 232.673C222.443 232.741 222.289 232.701 222.22 232.581C222.151 232.463 222.193 232.311 222.31 232.242L226.977 229.548C229.073 228.339 232.476 228.341 234.57 229.548L241.515 233.558C241.592 233.604 241.638 233.685 241.638 233.774V239.024C241.638 239.16 241.528 239.271 241.39 239.271Z" fill="#47433F"/>
<path d="M242.226 238.753C242.088 238.753 241.979 238.641 241.979 238.504V234.712L241.216 233.949C241.118 233.852 241.118 233.695 241.216 233.598C241.311 233.502 241.47 233.502 241.566 233.598L242.402 234.434C242.448 234.48 242.475 234.543 242.475 234.609V238.504C242.474 238.641 242.363 238.753 242.226 238.753Z" fill="#47433F"/>
<path d="M137.396 256.236L126.532 259.546L127.463 268.856L130.577 275.405L150.952 263.641L137.396 256.236Z" fill="#26231F"/>
<path d="M40.0674 200.043L29.2037 203.353L30.1357 212.665L33.2486 219.212L53.6238 207.448L40.0674 200.043Z" fill="#26231F"/>
<path d="M147.245 264.86C144.735 263.412 142.467 263.29 140.839 264.266L135.217 267.512L148.031 289.437L153.653 286.191C155.243 285.238 156.224 283.242 156.224 280.412C156.223 274.686 152.204 267.723 147.245 264.86Z" fill="#26231F"/>
<path d="M147.963 289.465C151.469 287.44 151.468 280.876 147.962 274.803C144.456 268.73 138.771 265.448 135.265 267.472C131.759 269.496 131.759 276.06 135.266 282.134C138.772 288.207 144.457 291.489 147.963 289.465Z" fill="#3F3932"/>
<path d="M141.612 286.213C138.034 284.233 135.083 279.239 135.021 275.059C134.96 270.879 137.808 269.095 141.386 271.075C144.963 273.055 147.915 278.048 147.977 282.228C148.039 286.409 145.189 288.193 141.612 286.213Z" fill="#A8A8A8"/>
<path d="M140.92 283.959C138.584 282.667 136.657 279.407 136.616 276.677C136.575 273.947 138.436 272.783 140.772 274.075C143.107 275.368 145.035 278.629 145.076 281.358C145.117 284.088 143.256 285.252 140.92 283.959Z" fill="#A8A8A8"/>
<path d="M147.003 282.116C147.009 281.978 147.011 281.836 147.008 281.692C146.983 280.022 146.415 278.198 145.505 276.559C144.478 274.711 143.015 273.098 141.402 272.205C138.359 270.522 135.935 272.039 135.988 275.594C136.041 279.149 138.551 283.396 141.594 285.081C144.514 286.696 146.864 285.366 147.003 282.116ZM140.92 283.959C138.584 282.667 136.657 279.407 136.616 276.677C136.575 273.946 138.436 272.783 140.772 274.075C142.011 274.761 143.133 275.999 143.922 277.418C144.621 278.676 145.056 280.076 145.076 281.358C145.077 281.469 145.076 281.579 145.072 281.684C144.964 284.179 143.16 285.199 140.92 283.959Z" fill="#BEBEBE"/>
<path d="M145.506 276.559L143.922 277.418C144.621 278.676 145.056 280.076 145.076 281.358C145.077 281.469 145.076 281.579 145.072 281.684L147.004 282.116C147.01 281.978 147.012 281.836 147.009 281.692C146.983 280.021 146.416 278.197 145.506 276.559Z" fill="#E4E4E4"/>
<path d="M49.6031 208.487C47.0934 207.038 44.8248 206.917 43.1968 207.893L37.5754 211.139L50.3894 233.063L56.0107 229.818C57.6014 228.865 58.5823 226.868 58.5823 224.039C58.5823 218.313 54.5619 211.35 49.6031 208.487Z" fill="#26231F"/>
<path d="M50.3239 233.089C53.8299 231.065 53.8296 224.501 50.3232 218.428C46.8167 212.355 41.132 209.072 37.626 211.097C34.1199 213.121 34.1202 219.685 37.6267 225.758C41.1331 231.831 46.8179 235.114 50.3239 233.089Z" fill="#3F3932"/>
<path d="M43.9714 229.839C40.3944 227.86 37.4426 222.866 37.3807 218.686C37.3189 214.505 40.1676 212.721 43.7458 214.701C47.3228 216.681 50.2746 221.675 50.3365 225.855C50.3984 230.035 47.5484 231.819 43.9714 229.839Z" fill="#A8A8A8"/>
<path d="M43.2779 227.588C40.9422 226.295 39.0152 223.035 38.9739 220.305C38.9327 217.575 40.794 216.411 43.1297 217.703C45.4653 218.996 47.3924 222.258 47.4336 224.986C47.4749 227.715 45.6149 228.88 43.2779 227.588Z" fill="#A8A8A8"/>
<path d="M49.3622 225.743C49.3686 225.605 49.3699 225.463 49.3687 225.319C49.3442 223.648 48.7757 221.825 47.8657 220.186C46.8383 218.338 45.3753 216.725 43.7628 215.832C40.7195 214.148 38.2961 215.666 38.349 219.221C38.4018 222.776 40.9115 227.023 43.9549 228.708C46.8732 230.323 49.2217 228.993 49.3622 225.743ZM43.2781 227.588C40.9424 226.295 39.0154 223.035 38.9742 220.305C38.9329 217.575 40.7942 216.411 43.1299 217.704C44.3686 218.389 45.4913 219.627 46.2802 221.046C46.9789 222.304 47.4145 223.704 47.4339 224.986C47.4351 225.097 47.4339 225.207 47.43 225.313C47.323 227.805 45.5197 228.828 43.2781 227.588Z" fill="#BEBEBE"/>
<path d="M47.8642 220.186L46.28 221.045C46.9787 222.303 47.4143 223.703 47.4337 224.985C47.435 225.096 47.4337 225.206 47.4298 225.311L49.362 225.743C49.3685 225.605 49.3698 225.463 49.3685 225.319C49.3427 223.648 48.7755 221.824 47.8642 220.186Z" fill="#E4E4E4"/>
<path d="M228.853 268.849C228.853 268.55 228.693 268.274 228.434 268.124L228.115 267.94L228.045 234.381L228.412 234.168C228.659 234.025 228.809 233.762 228.809 233.477L228.799 224.324L183.881 250.415L183.893 259.643C183.649 259.645 183.404 259.586 183.186 259.46L179.272 257.2C179.219 257.169 179.153 257.208 179.153 257.268L179.142 290.887C179.142 291.28 179.352 291.643 179.692 291.841L183.018 293.761C183.302 293.925 183.62 294.004 183.937 294L183.952 306.222L228.87 280.131L228.853 268.849ZM223.647 250.127C223.647 250.75 222.973 251.139 222.433 250.829L210.979 244.216L223.647 236.902V250.127Z" fill="#10EA4E"/>
<path d="M228.114 267.94L228.045 234.381C228.045 234.363 223.647 236.902 223.647 236.902V250.127C223.647 250.75 222.973 251.139 222.432 250.828L210.978 244.216L184.575 259.461C184.35 259.591 184.099 259.644 183.849 259.639C183.619 259.634 183.391 259.579 183.185 259.461L179.27 257.201C179.217 257.17 179.152 257.209 179.152 257.27L179.14 290.888C179.14 291.281 179.35 291.645 179.69 291.842L183.016 293.763C183.158 293.845 183.309 293.904 183.463 293.944C183.623 293.983 183.779 294.002 183.935 294.001C184.238 293.997 184.541 293.92 184.813 293.763L227.944 268.862C228.051 268.8 228.117 268.686 228.116 268.563L228.114 267.94Z" fill="#282523"/>
<path d="M0.0426025 142.536L44.9604 116.445L227.292 221.715L182.374 247.806L0.0426025 142.536Z" fill="#1DFF5D"/>
<path d="M228.536 223.19C228.389 222.857 228.188 222.54 227.952 222.271C227.752 222.044 227.529 221.852 227.292 221.715L182.374 247.806C182.611 247.942 182.836 248.134 183.034 248.361C183.27 248.631 183.471 248.948 183.618 249.28C183.784 249.655 183.881 250.05 183.88 250.415L228.798 224.324C228.799 223.959 228.702 223.565 228.536 223.19Z" fill="#34FF6E"/>
<path d="M183.016 293.76L179.691 291.839C179.349 291.642 179.14 291.279 179.14 290.885L179.152 257.267C179.152 257.206 179.218 257.168 179.27 257.199L183.185 259.458C183.404 259.585 183.648 259.644 183.891 259.641L183.88 250.413C183.882 249.454 183.208 248.286 182.373 247.804L0.0399666 142.534L0 194.78C0.001289 195.773 0.430528 196.717 1.17815 197.372L12.3254 207.131L33.2485 219.212L33.2407 215.621C33.2601 208.923 37.9997 206.23 43.8209 209.591C49.6497 212.956 54.352 221.1 54.3327 227.798L54.3352 231.386L130.573 275.403L130.565 271.812C130.585 265.114 135.324 262.422 141.146 265.782C146.974 269.148 151.677 277.292 151.657 283.989L151.66 287.578L183.947 306.219L183.931 293.997C183.618 294.002 183.301 293.925 183.016 293.76ZM21.1267 169.664L4.07453 179.509C4.05777 179.449 4.05777 156.862 4.05777 156.862C4.05777 156.454 4.49862 156.199 4.85181 156.403L20.4062 165.383C20.8522 165.641 21.1254 166.115 21.1254 166.63L21.1267 169.664ZM22.8591 168.664V167.718C22.8591 167.31 23.3 167.055 23.6532 167.259L24.473 167.732L22.8591 168.664Z" fill="#00D33C"/>
<path d="M83.3301 173.359L12.4608 132.443V135.464L83.3301 176.381V173.359Z" fill="#00D33C"/>
<path d="M105.433 163.62L83.3301 176.381V173.359L105.433 160.598V163.62Z" fill="#10EA4E"/>
<path d="M83.3301 173.359L12.4608 132.443L34.5633 119.682L105.433 160.598L83.3301 173.359Z" fill="#1DFF5D"/>
<path d="M1.72607 150.772V180.865L174.8 280.79V250.697L1.72607 150.772ZM21.1268 169.664L4.07462 179.509C4.05786 179.449 4.05786 156.862 4.05786 156.862C4.05786 156.454 4.49872 156.199 4.8519 156.403L20.4063 165.383C20.8523 165.641 21.1255 166.115 21.1255 166.63L21.1268 169.664ZM22.8592 168.664V167.718C22.8592 167.31 23.3001 167.055 23.6533 167.259L24.4731 167.732L22.8592 168.664Z" fill="#282523"/>
<path d="M177.381 302.427L153.862 288.849V238.601L177.381 252.179V302.427Z" fill="#282523"/>
<path d="M99.8603 257.67L76.3412 244.092V193.844L99.8603 207.424V257.67Z" fill="#282523"/>
<path opacity="0.8" d="M183.185 259.46L179.27 257.2C179.217 257.17 179.152 257.208 179.152 257.268L179.14 290.887C179.14 291.28 179.35 291.643 179.69 291.841L183.016 293.761C183.572 294.082 184.257 294.082 184.813 293.761L227.944 268.86C228.051 268.799 228.117 268.685 228.116 268.561L228.045 234.363L184.575 259.46C184.145 259.708 183.614 259.708 183.185 259.46Z" fill="url(#paint0_linear_483_6813)"/>
<path opacity="0.8" d="M87.3529 240.56L77.9342 235.122V198.753L87.3529 204.191V240.56ZM98.1599 210.43L88.7411 204.992V241.361L98.1599 246.799V210.43ZM164.757 285.25L155.339 279.812V243.442L164.757 248.881V285.25ZM175.564 255.12L166.146 249.681V286.05L175.564 291.489V255.12ZM124.757 249.851L101.064 236.173C100.68 235.951 100.444 235.541 100.444 235.099V212.512C100.444 212.104 100.885 211.849 101.238 212.053L125.251 225.916C125.697 226.174 125.97 226.648 125.97 227.162V249.149C125.971 249.774 125.297 250.163 124.757 249.851ZM153.231 264.889V242.902C153.231 242.388 152.957 241.912 152.512 241.656L128.499 227.793C128.146 227.589 127.705 227.844 127.705 228.252V250.839C127.705 251.282 127.941 251.691 128.325 251.912L152.018 265.591C152.557 265.901 153.231 265.511 153.231 264.889ZM48.3851 204.356V182.37C48.3851 181.855 48.1106 181.38 47.6659 181.123L23.6531 167.26C23.2999 167.056 22.859 167.31 22.859 167.719V190.306C22.859 190.749 23.0949 191.158 23.479 191.38L47.1722 205.059C47.711 205.369 48.3851 204.98 48.3851 204.356ZM75.6449 220.095V198.108C75.6449 197.594 75.3703 197.118 74.9256 196.862L50.9128 182.999C50.5597 182.795 50.1188 183.05 50.1188 183.458V206.045C50.1188 206.488 50.3547 206.897 50.7388 207.118L74.432 220.797C74.9708 221.107 75.6449 220.717 75.6449 220.095ZM21.1266 188.619V166.632C21.1266 166.118 20.8521 165.642 20.4074 165.386L4.85298 156.405C4.49979 156.202 4.05896 156.457 4.05896 156.864V179.451C4.05896 179.895 4.29485 180.303 4.67897 180.525L19.9137 189.321C20.4512 189.631 21.1266 189.241 21.1266 188.619Z" fill="#35312D"/>
<path d="M184.408 271.842C184.27 271.762 184.078 271.773 183.865 271.896L181.655 273.172C181.238 273.412 180.899 273.988 180.901 274.466L180.909 282.601C180.909 282.838 180.994 283.006 181.13 283.084L181.789 283.468L185.068 272.224L184.408 271.842Z" fill="#00D33C"/>
<path d="M185.283 272.703C185.282 272.224 184.94 272.041 184.525 272.281L182.313 273.557C181.897 273.797 181.558 274.373 181.559 274.851L181.567 282.986C181.568 283.464 181.91 283.659 182.326 283.418L184.538 282.141C184.955 281.901 185.294 281.313 185.292 280.836L185.283 272.703Z" fill="#10EA4E"/>
<path d="M183.525 272.643C183.389 272.643 183.278 272.533 183.278 272.396V267.324L176.456 263.386C175.397 262.774 174.812 261.943 174.812 261.051C174.812 260.159 175.397 259.329 176.456 258.717L181.122 256.023C181.238 255.955 181.392 255.995 181.463 256.115C181.531 256.233 181.49 256.385 181.373 256.454L176.706 259.148C175.805 259.667 175.309 260.344 175.309 261.051C175.309 261.76 175.805 262.436 176.706 262.955L183.651 266.965C183.729 267.01 183.775 267.092 183.775 267.181V272.396C183.774 272.533 183.663 272.643 183.525 272.643Z" fill="#47433F"/>
<path d="M182.638 273.133C182.502 273.133 182.391 273.022 182.391 272.886V268.752C182.391 268.709 182.403 268.668 182.422 268.629L183.31 267.058C183.38 266.94 183.529 266.897 183.649 266.964C183.769 267.031 183.81 267.182 183.743 267.302L182.887 268.816V272.884C182.886 273.022 182.775 273.133 182.638 273.133Z" fill="#47433F"/>
<path opacity="0.3" d="M184.674 209.226L161.871 222.392L139.068 209.226L161.871 196.06L184.674 209.226Z" fill="#10EA4E"/>
<path d="M161.871 197.697L183.257 210.044L184.674 209.226L161.871 196.06L139.068 209.226L140.486 210.044L161.871 197.697Z" fill="#10EA4E"/>
<path d="M194.612 293.242L186.307 298.037V295.332L194.612 290.537V293.242Z" fill="#FDFFEF"/>
<path d="M186.588 297.874L183.943 299.4V296.697L186.588 295.17V297.874Z" fill="#1AEC55"/>
<path d="M182.883 298.784L183.952 299.4V296.697L182.883 296.08V298.784Z" fill="#0DC140"/>
<path d="M218.198 279.624L226.503 274.828V272.125L218.198 276.921V279.624Z" fill="#FDFFEF"/>
<path d="M226.221 274.992L228.866 273.465V270.76L226.221 272.288V274.992Z" fill="#1AEC55"/>
<path opacity="0.9" d="M216.235 278.58L196.543 289.949V289.422L216.235 278.053V278.58ZM216.235 279.088L196.543 290.457V290.985L216.235 279.616V279.088ZM216.235 280.122L196.543 291.491V292.018L216.235 280.649V280.122ZM216.235 281.157L196.543 292.526V293.053L216.235 281.684V281.157ZM216.235 282.192L196.543 293.561V294.088L216.235 282.719V282.192ZM216.235 283.226L196.543 294.595V295.122L216.235 283.753V283.226Z" fill="#00D33C"/>
<path d="M225.512 235.805L187.536 257.748V250.077L225.512 228.151V235.805Z" fill="#282523"/>
<path d="M194.26 251.195L189.308 254.054V251.87L194.26 249.011V251.195ZM204.166 243.292L196.487 247.725V249.908L204.166 245.475V243.292ZM211.57 239.016L206.393 242.005V244.189L211.57 241.2V239.016ZM223.703 232.012L219.982 234.161V236.344L223.703 234.195V232.012Z" fill="#1AEC55"/>
<path d="M129.008 265.118L127.295 264.128C127.045 263.984 126.842 263.663 126.842 263.413V263.217C126.842 262.967 127.045 262.88 127.295 263.025L129.008 264.015C129.258 264.159 129.462 264.48 129.462 264.73V264.926C129.462 265.177 129.258 265.264 129.008 265.118ZM6.35221 193.849V193.653C6.35221 193.403 6.14857 193.082 5.8985 192.938L4.1854 191.948C3.93534 191.804 3.73169 191.889 3.73169 192.14V192.336C3.73169 192.586 3.93534 192.907 4.1854 193.051L5.8985 194.041C6.14857 194.186 6.35221 194.099 6.35221 193.849Z" fill="#0DC140"/>
<path d="M50.913 182.997C50.5599 182.794 50.119 183.049 50.119 183.456V187.828L75.6451 202.577V198.108C75.6451 197.594 75.3705 197.118 74.9258 196.862L50.913 182.997Z" fill="#282523"/>
<path d="M54.2967 188.376L50.819 186.368V184.834L54.2967 186.842V188.376ZM61.2521 190.858L55.8615 187.746V189.28L61.2521 192.393V190.858ZM66.4507 193.86L62.8157 191.761V193.295L66.4507 195.394V193.86ZM74.9697 198.779L72.3569 197.271V198.804L74.9697 200.313V198.779Z" fill="#1AEC55"/>
<path d="M56.7662 135.317L39.928 145.039L17.9802 132.368L34.8184 122.646L56.7662 135.317Z" fill="#35312D"/>
<defs>
<linearGradient id="paint0_linear_483_6813" x1="187.618" y1="276.103" x2="230.035" y2="241.341" gradientUnits="userSpaceOnUse">
<stop stop-color="#35312D"/>
<stop offset="1" stop-color="#4D4641"/>
</linearGradient>
</defs>
</svg>
